<?xml version="1.0" encoding="UTF-8"?>
<!DOCTYPE svg PUBLIC "-//W3C//DTD SVG 1.1//EN" "http://www.w3.org/Graphics/SVG/1.1/DTD/svg11.dtd">
<!-- Creator: CorelDRAW X8 -->
<svg xmlns="http://www.w3.org/2000/svg" xml:space="preserve" width="238px" height="238px" version="1.1" style="shape-rendering:geometricPrecision; text-rendering:geometricPrecision; image-rendering:optimizeQuality; fill-rule:evenodd; clip-rule:evenodd"
viewBox="0 0 166 166"
 xmlns:xlink="http://www.w3.org/1999/xlink">
 <defs>
  <style type="text/css">
   <![CDATA[
    .fil0 {fill:#FDFDFD}
   ]]>
  </style>
 </defs>
 <g id="Camada_x0020_1">
  <metadata id="CorelCorpID_0Corel-Layer"/>
  <g id="_1352815252112">
   <path class="fil0" d="M75 36c-24,4 -44,27 -39,56 4,23 26,43 55,39 24,-4 44,-27 39,-56 -4,-23 -26,-43 -55,-39zm5 21c0,13 -1,17 3,17 4,0 4,-4 4,-17 -1,-5 -7,-5 -7,0zm11 3c0,16 1,5 6,15 2,3 3,8 2,12 -4,16 -27,17 -32,0 -3,-13 8,-17 9,-19l0 -8c-26,7 -22,48 7,48 13,0 22,-9 24,-20 3,-14 -6,-26 -16,-28z"/>
   <path class="fil0" d="M109 36c7,1 6,-1 11,-10 2,-3 9,-12 5,-15 -6,-3 -9,6 -11,9 -3,5 -7,10 -5,16z"/>
   <path class="fil0" d="M41 155c4,1 5,1 7,-2 4,-7 12,-19 9,-22 -6,-4 -9,6 -11,9 -3,6 -7,9 -5,15z"/>
   <path class="fil0" d="M155 126c3,-7 -1,-7 -9,-11 -3,-2 -11,-8 -14,-6 -6,5 4,9 7,11 5,2 10,7 16,6z"/>
   <path class="fil0" d="M111 130c-6,3 0,10 2,14 4,6 6,13 11,11 6,-2 -1,-11 -3,-14 -3,-6 -5,-13 -10,-11z"/>
   <path class="fil0" d="M79 142c0,17 -2,26 7,23 2,-4 1,-15 1,-22 0,-8 -8,-7 -8,-1z"/>
   <path class="fil0" d="M57 36c2,-6 -4,-13 -9,-22 -1,-2 -3,-5 -6,-3 -5,4 3,14 7,22 2,3 3,4 8,3z"/>
   <path class="fil0" d="M12 126c5,1 11,-3 15,-6 2,-1 14,-6 8,-11 -4,-2 -11,4 -15,6 -5,3 -11,4 -8,11z"/>
   <path class="fil0" d="M35 57c1,-3 2,-5 -1,-7 -4,-2 -19,-12 -22,-9 -6,4 5,9 8,10 4,3 9,8 15,6z"/>
   <path class="fil0" d="M131 57c6,2 10,-3 15,-5 3,-2 14,-7 8,-12 -3,-2 -11,4 -14,6 -8,5 -12,5 -9,11z"/>
   <path class="fil0" d="M6 87l17 0c6,0 6,-3 5,-7 -6,-2 -14,-1 -20,-1 -4,0 -7,0 -8,3 -1,4 2,5 6,5z"/>
   <path class="fil0" d="M79 6c0,6 -2,28 7,22 2,-3 2,-25 0,-27 -1,0 -7,-4 -7,5z"/>
   <path class="fil0" d="M139 80c-2,4 -2,7 4,7 8,0 15,0 22,0 2,-5 2,-8 -4,-8 -9,0 -14,0 -22,1z"/>
  </g>
 </g>
</svg>
